<?xml version="1.0" encoding="utf-8"?>
<!-- Generated by IcoMoon.io -->
<!DOCTYPE svg PUBLIC "-//W3C//DTD SVG 1.1//EN" "http://www.w3.org/Graphics/SVG/1.1/DTD/svg11.dtd">
<svg version="1.1" xmlns="http://www.w3.org/2000/svg" xmlns:xlink="http://www.w3.org/1999/xlink" width="512" height="512" viewBox="0 0 512 512">
<g id="icomoon-ignore">
</g>
<path d="M448 64h-48v16c0 17.645-14.355 32-32 32s-32-14.355-32-32v-16h-160v16c0 17.645-14.355 32-32 32s-32-14.355-32-32v-16h-48c-17.6 0-32 14.4-32 32v352c0 17.6 14.4 32 32 32h384c17.6 0 32-14.4 32-32v-352c0-17.6-14.4-32-32-32zM448 447.942c-0.017 0.020-0.038 0.041-0.058 0.058h-383.885c-0.020-0.017-0.041-0.038-0.057-0.058v-287.942h384v287.942zM144 96c8.836 0 16-7.164 16-16v-64c0-8.836-7.164-16-16-16s-16 7.164-16 16v64c0 8.836 7.164 16 16 16zM368 96c8.836 0 16-7.164 16-16v-64c0-8.836-7.164-16-16-16s-16 7.164-16 16v64c0 8.836 7.164 16 16 16zM288 192h-160v32h128v64h-128v32h128v64h-128v32h160zM352 416h32v-224h-64v32h32zM436 492h-360c-17.6 0-32-10.4-32-28v16c0 17.6 14.4 32 32 32h360c17.6 0 32-14.4 32-32v-16c0 17.6-14.4 28-32 28z"></path>
</svg>
