<?xml version="1.0" encoding="utf-8"?>
<!-- Generator: Adobe Illustrator 17.0.0, SVG Export Plug-In . SVG Version: 6.00 Build 0)  -->
<!DOCTYPE svg PUBLIC "-//W3C//DTD SVG 1.1//EN" "http://www.w3.org/Graphics/SVG/1.1/DTD/svg11.dtd">
<svg version="1.1" id="Layer_1" xmlns="http://www.w3.org/2000/svg" xmlns:xlink="http://www.w3.org/1999/xlink" x="0px" y="0px"
	 width="60px" height="60px" viewBox="0 0 60 60" enable-background="new 0 0 60 60" xml:space="preserve">
<rect x="-191.92" y="-139.492" fill="#F2F2F2" width="140" height="120"/>
<rect x="-51.92" y="-139.492" fill="#F2F2F2" width="140" height="120"/>
<rect x="88.08" y="-139.492" fill="#F2F2F2" width="140" height="120"/>
<rect x="228.08" y="-139.492" fill="#F2F2F2" width="140" height="120"/>

<rect x="-192.122" y="-139.492" fill="#FFFFFF" width="558.229" height="118.975"/>
<g>
	<path fill="none" stroke="#34495E" stroke-width="4" stroke-miterlimit="10" d="M-105.544-71.392c4.712-0.475,8.39-4.453,8.39-9.29
		c0-5.157-4.181-9.338-9.338-9.338c-0.411,0-0.813,0.036-1.21,0.087c0.768-1.501,1.21-3.197,1.21-5
		c0-6.073-4.923-10.997-10.997-10.997c-6.073,0-10.997,4.923-10.997,10.997c0,0.011,0.002,0.022,0.002,0.033
		c-0.868-0.275-1.792-0.425-2.751-0.425c-5.026,0-9.101,4.074-9.101,9.101c0,0.431,0.041,0.851,0.098,1.266
		c-3.591,0.199-6.45,3.147-6.45,6.788c0,3.77,3.056,6.826,6.826,6.826h5.89"/>
	<polygon fill="#34495E" points="-110.298,-72.367 -120.186,-82.254 -130.074,-72.367 -125.621,-72.367 -125.621,-62.262 
		-114.751,-62.262 -114.751,-72.367 	"/>
</g>
<g>
	<circle fill="#34495E" cx="4.448" cy="-82.414" r="6.901"/>
	<circle fill="#34495E" cx="31.711" cy="-97.408" r="6.901"/>
	<circle fill="#34495E" cx="31.711" cy="-68.783" r="6.901"/>
	
		<line fill="#34495E" stroke="#34495E" stroke-width="2.7263" stroke-miterlimit="10" x1="4.448" y1="-82.414" x2="30.035" y2="-97.323"/>
	
		<line fill="#34495E" stroke="#34495E" stroke-width="2.7263" stroke-miterlimit="10" x1="4.448" y1="-83.692" x2="30.035" y2="-68.783"/>
</g>
<g>
	<rect x="140.132" y="-100.648" fill="#0F3A0A" width="28.171" height="35.454"/>
	<rect x="147.856" y="-94.815" fill="#34495E" width="28.171" height="35.454"/>
</g>
<g>
	<polyline fill="none" stroke="#34495E" stroke-width="3" stroke-miterlimit="10" points="286.119,-88.652 286.119,-60.46 
		310.04,-60.46 310.04,-88.652 	"/>
	<polyline fill="none" stroke="#34495E" stroke-width="3" stroke-miterlimit="10" points="292.954,-93.778 292.954,-98.049 
		303.205,-98.049 303.205,-93.778 	"/>
	<path fill="#34495E" d="M292.099-64.731L292.099-64.731c-0.94,0-1.709-0.769-1.709-1.709v-17.086c0-0.94,0.769-1.709,1.709-1.709
		l0,0c0.94,0,1.709,0.769,1.709,1.709v17.086C293.808-65.5,293.039-64.731,292.099-64.731z"/>
	<path fill="#34495E" d="M298.08-64.731L298.08-64.731c-0.94,0-1.709-0.769-1.709-1.709v-17.086c0-0.94,0.769-1.709,1.709-1.709h0
		c0.94,0,1.709,0.769,1.709,1.709v17.086C299.788-65.5,299.019-64.731,298.08-64.731z"/>
	<path fill="#34495E" d="M304.06-64.731L304.06-64.731c-0.94,0-1.709-0.769-1.709-1.709v-17.086c0-0.94,0.769-1.709,1.709-1.709l0,0
		c0.94,0,1.709,0.769,1.709,1.709v17.086C305.768-65.5,305-64.731,304.06-64.731z"/>
	<polygon fill="#34495E" points="315.166,-90.36 280.993,-90.36 286.369,-93.778 309.453,-93.778 	"/>
	<path fill="#34495E" d="M309.043-93.778c0,0,2.732,0.074,3.702,0.498c2.118,0.925,2.367,2.865,2.367,2.865h-5.517L309.043-93.778z"
		/>
	<path fill="#34495E" d="M287.107-93.778c0,0-2.723-0.053-3.671,0.467c-2.026,1.113-2.407,2.932-2.407,2.932h5.517L287.107-93.778z"
		/>
</g>
<g>
	<polyline fill="none" stroke="#34495E" stroke-width="3" stroke-miterlimit="10" points="18.04,20.603 18.04,48.795 41.96,48.795 
		41.96,20.603 	"/>
	<polyline fill="none" stroke="#34495E" stroke-width="3" stroke-miterlimit="10" points="24.874,15.477 24.874,11.205 
		35.126,11.205 35.126,15.477 	"/>
	<path fill="#34495E" d="M24.02,44.523L24.02,44.523c-0.94,0-1.709-0.769-1.709-1.709V25.728c0-0.94,0.769-1.709,1.709-1.709h0
		c0.94,0,1.709,0.769,1.709,1.709v17.086C25.728,43.754,24.959,44.523,24.02,44.523z"/>
	<path fill="#34495E" d="M30,44.523L30,44.523c-0.94,0-1.709-0.769-1.709-1.709V25.728c0-0.94,0.769-1.709,1.709-1.709h0
		c0.94,0,1.709,0.769,1.709,1.709v17.086C31.708,43.754,30.94,44.523,30,44.523z"/>
	<path fill="#34495E" d="M35.98,44.523L35.98,44.523c-0.94,0-1.709-0.769-1.709-1.709V25.728c0-0.94,0.769-1.709,1.709-1.709h0
		c0.94,0,1.709,0.769,1.709,1.709v17.086C37.689,43.754,36.92,44.523,35.98,44.523z"/>
	<polygon fill="#34495E" points="47.086,18.894 12.914,18.894 18.289,15.477 41.373,15.477 	"/>
	<path fill="#34495E" d="M40.963,15.477c0,0,2.732,0.074,3.702,0.498c2.118,0.925,2.367,2.865,2.367,2.865h-5.517L40.963,15.477z"/>
	<path fill="#34495E" d="M19.027,15.477c0,0-2.723-0.053-3.671,0.467c-2.026,1.113-2.407,2.932-2.407,2.932h5.517L19.027,15.477z"/>
</g>
</svg>
