<?xml version="1.0" ?><!DOCTYPE svg  PUBLIC '-//W3C//DTD SVG 1.1//EN'  'http://www.w3.org/Graphics/SVG/1.1/DTD/svg11.dtd'><svg enable-background="new 0 0 100 100" height="100px" id="Layer_1" version="1.1" viewBox="0 0 100 100" width="100px" xml:space="preserve" xmlns="http://www.w3.org/2000/svg" xmlns:xlink="http://www.w3.org/1999/xlink"><g><path d="M83.996,7h-3.385H41.96H12.201C9.333,7,7,9.333,7,12.201v75.6C7,90.667,9.333,93,12.201,93H15.4h69.061h3.34   C90.668,93,93,90.667,93,87.801V16.005L83.996,7z M78.611,9v15.802c0,1.764-1.436,3.198-3.199,3.198h-29.25   c-1.766,0-3.202-1.435-3.202-3.198V9H78.611z M17.4,91V45.749c0-1.764,1.437-3.199,3.201-3.199h58.66   c1.764,0,3.199,1.435,3.199,3.199V91H17.4z M91,87.801C91,89.565,89.564,91,87.801,91h-3.34V45.749   c0-2.867-2.332-5.199-5.199-5.199h-58.66c-2.868,0-5.201,2.333-5.201,5.199V91h-3.199C10.437,91,9,89.565,9,87.801v-75.6   C9,10.436,10.437,9,12.201,9H40.96v15.802c0,2.866,2.334,5.198,5.202,5.198h29.25c2.867,0,5.199-2.332,5.199-5.198V9h2.557   L91,16.833V87.801z"/><rect height="12.473" width="4.209" x="71.352" y="12.201"/><rect height="2" width="47.25" x="26.375" y="54.25"/><rect height="2" width="47.25" x="26.375" y="63.875"/><rect height="2" width="47.25" x="26.375" y="72.625"/></g></svg>